<?xml version="1.0" encoding="UTF-8" standalone="no"?>
<!-- Created with Inkscape (http://www.inkscape.org/) -->

<svg
   xmlns:dc="http://purl.org/dc/elements/1.1/"
   xmlns:cc="http://creativecommons.org/ns#"
   xmlns:rdf="http://www.w3.org/1999/02/22-rdf-syntax-ns#"
   xmlns:svg="http://www.w3.org/2000/svg"
   xmlns="http://www.w3.org/2000/svg"
   xmlns:sodipodi="http://sodipodi.sourceforge.net/DTD/sodipodi-0.dtd"
   xmlns:inkscape="http://www.inkscape.org/namespaces/inkscape"
   width="744.09448819"
   height="1052.3622047"
   id="svg5086"
   version="1.1"
   inkscape:version="0.48.3.1 r9886"
   sodipodi:docname="UiGEN_logotype_official.svg">
  <defs
     id="defs5088" />
  <sodipodi:namedview
     id="base"
     pagecolor="#ffffff"
     bordercolor="#666666"
     borderopacity="1.0"
     inkscape:pageopacity="0.0"
     inkscape:pageshadow="2"
     inkscape:zoom="1.2219689"
     inkscape:cx="543.22053"
     inkscape:cy="237.28917"
     inkscape:document-units="px"
     inkscape:current-layer="layer1"
     showgrid="false"
     showguides="true"
     inkscape:guide-bbox="true"
     inkscape:window-width="1600"
     inkscape:window-height="799"
     inkscape:window-x="0"
     inkscape:window-y="31"
     inkscape:window-maximized="1" />
  <metadata
     id="metadata5091">
    <rdf:RDF>
      <cc:Work
         rdf:about="">
        <dc:format>image/svg+xml</dc:format>
        <dc:type
           rdf:resource="http://purl.org/dc/dcmitype/StillImage" />
        <dc:title></dc:title>
      </cc:Work>
    </rdf:RDF>
  </metadata>
  <g
     inkscape:label="Layer 1"
     inkscape:groupmode="layer"
     id="layer1">
    <rect
       style="color:#000000;fill:#000000;fill-opacity:1;stroke:#000000;stroke-width:2.63435769;stroke-linecap:butt;stroke-linejoin:round;stroke-miterlimit:4;stroke-opacity:1;stroke-dasharray:none;stroke-dashoffset:0;marker:none;visibility:visible;display:inline;overflow:visible;enable-background:accumulate"
       id="rect5928"
       width="410.21008"
       height="324.52002"
       x="168.60023"
       y="432.92026" />
    <g
       id="g5163"
       transform="translate(5.6853527,129.41772)">
      <path
         inkscape:export-ydpi="200"
         inkscape:export-xdpi="200"
         inkscape:export-filename="/home/gdurtan/Documents/!projekty_arch/uigen_mess/uigen_logo_horizontal_inverse.png"
         d="M 220.3535,428.25582 223.97529,428.25582 223.97529,465.56022 C 223.97528,469.18202 224.79353,472.52212 226.43005,475.58042 228.06655,478.63882 230.23962,481.04002 232.94927,482.78382 235.6857,484.50082 238.63679,485.35932 241.80252,485.35932 244.9682,485.35932 247.89245,484.50082 250.57529,482.78382 253.28488,481.04002 255.43112,478.65232 257.01401,475.62072 258.62365,472.56232 259.42849,469.20882 259.42854,465.56022 L 259.42854,428.25582 263.05032,428.25582 263.05032,465.56022 C 263.05027,469.77222 262.09788,473.67572 260.19314,477.27062 258.31513,480.83872 255.72623,483.68252 252.42642,485.80192 249.15336,487.89452 245.57183,488.94082 241.68179,488.94082 237.7917,488.94082 234.21016,487.89452 230.93716,485.80192 227.66413,483.68252 225.07523,480.83872 223.17045,477.27062 221.29248,473.67572 220.3535,469.77222 220.3535,465.56022 L 220.3535,428.25582"
         style="font-size:69.32619476px;font-style:normal;font-variant:normal;font-weight:normal;font-stretch:normal;line-height:125%;letter-spacing:11.05000019px;word-spacing:0px;fill:#000000;fill-opacity:1;stroke:#ffffff;stroke-width:5;stroke-miterlimit:4;stroke-opacity:1;stroke-dasharray:none;font-family:Umpush;-inkscape-font-specification:Umpush"
         id="path6337-1-2-8"
         inkscape:connector-curvature="0" />
      <path
         inkscape:export-ydpi="200"
         inkscape:export-xdpi="200"
         inkscape:export-filename="/home/gdurtan/Documents/!projekty_arch/uigen_mess/uigen_logo_horizontal_inverse.png"
         d="M 291.04224,488.33722 287.42045,488.33722 287.42045,456.39082 291.04224,456.39082 291.04224,488.33722"
         style="font-size:69.32619476px;font-style:normal;font-variant:normal;font-weight:normal;font-stretch:normal;line-height:125%;letter-spacing:16.47999954px;word-spacing:0px;fill:#ffffff;fill-opacity:1;stroke:#ffffff;stroke-width:2;stroke-miterlimit:4;stroke-opacity:1;stroke-dasharray:none;font-family:Umpush;-inkscape-font-specification:Umpush"
         id="path6339-1-7-6"
         inkscape:connector-curvature="0"
         sodipodi:nodetypes="ccccc" />
      <path
         inkscape:export-ydpi="200"
         inkscape:export-xdpi="200"
         inkscape:export-filename="/home/gdurtan/Documents/!projekty_arch/uigen_mess/uigen_logo_horizontal_inverse.png"
         d="M 366.12282,438.04672 363.22539,440.17952 C 360.73033,436.82612 359.59146,436.18352 355.80875,434.25192 352.05279,432.29352 347.98834,431.31422 343.61541,431.31422 338.73268,431.31422 334.22557,432.52152 330.09408,434.93602 325.98937,437.35052 322.74319,440.63702 320.35551,444.79532 317.9678,448.92682 316.77395,453.44732 316.77396,458.35682 316.77395,462.00552 317.47148,465.49312 318.86655,468.81982 320.28842,472.14652 322.19321,475.01712 324.58092,477.43162 326.9686,479.84612 329.82578,481.77772 333.15248,483.22642 336.47913,484.64832 339.96677,485.35932 343.61541,485.35932 348.28345,485.35932 352.62959,484.24592 356.65384,482.01922 360.67799,479.76562 363.91077,476.70722 366.35217,472.84402 368.79346,468.98082 370.16169,464.74192 370.45686,460.12752 L 343.61541,460.12752 343.61541,456.54602 374.11889,456.54602 374.11889,458.35682 C 374.11882,462.51522 373.31398,466.48582 371.70437,470.26852 370.09462,474.02442 367.92155,477.27062 365.18515,480.00712 362.47547,482.74352 359.22928,484.91662 355.44658,486.52632 351.69061,488.13602 347.74689,488.94082 343.61541,488.94082 339.48386,488.94082 335.54015,488.13602 331.78425,486.52632 328.0283,484.91662 324.79553,482.74352 322.08591,480.00712 319.37627,477.27062 317.21662,474.02442 315.60694,470.26852 313.99725,466.48582 313.19241,462.51522 313.19242,458.35682 313.19241,454.19852 313.99725,450.22802 315.60694,446.44522 317.21662,442.66252 319.37627,439.40292 322.08591,436.66642 324.79553,433.93002 328.0283,431.75692 331.78425,430.14722 335.54015,428.53752 339.48386,427.73272 343.61541,427.73262 348.5249,427.73272 353.13932,428.83272 357.45868,431.03252 361.77794,433.23242 363.33265,434.23722 366.12282,438.04672"
         style="font-size:69.32619476px;font-style:normal;font-variant:normal;font-weight:normal;font-stretch:normal;line-height:125%;letter-spacing:12.56000042px;word-spacing:0px;fill:#000000;fill-opacity:1;stroke:#ffffff;stroke-width:5;stroke-miterlimit:4;stroke-opacity:1;stroke-dasharray:none;font-family:Umpush;-inkscape-font-specification:Umpush"
         id="path6341-83-23-7"
         inkscape:connector-curvature="0"
         sodipodi:nodetypes="cccsccscscsccccccccccssccsscsccc" />
      <path
         inkscape:export-ydpi="200"
         inkscape:export-xdpi="200"
         inkscape:export-filename="/home/gdurtan/Documents/!projekty_arch/uigen_mess/uigen_logo_horizontal_inverse.png"
         sodipodi:nodetypes="ccccccccccccccccccc"
         inkscape:connector-curvature="0"
         id="path6343-5-9-1"
         d="M 392.35607,428.25202 392.35607,432.30112 395.98107,432.27192 427.29357,432.24272 427.29357,428.25202 z M 392.35607,451.62352 392.35607,455.24032 395.98107,455.24622 424.79357,455.25202 424.79357,451.62702 395.98107,451.62532 z M 392.35607,483.84032 392.35607,488.34582 427.10607,488.34582 427.10607,483.85892 395.98107,483.84962 z"
         style="font-size:69.32619476px;font-style:normal;font-variant:normal;font-weight:normal;font-stretch:normal;line-height:125%;letter-spacing:19.16000557px;word-spacing:0px;fill:#ffffff;fill-opacity:1;stroke:#ffffff;stroke-width:3;stroke-miterlimit:4;stroke-opacity:1;stroke-dasharray:none;font-family:Umpush;-inkscape-font-specification:Umpush" />
      <path
         inkscape:export-ydpi="200"
         inkscape:export-xdpi="200"
         inkscape:export-filename="/home/gdurtan/Documents/!projekty_arch/uigen_mess/uigen_logo_horizontal_inverse.png"
         d="M 449.61438,488.33722 449.61438,427.53142 500.1584,480.20832 500.1584,428.25582 503.73995,428.25582 503.73995,489.02132 453.23617,436.42492 453.23617,488.33722 449.61438,488.33722"
         style="font-size:69.32619476px;font-style:normal;font-variant:normal;font-weight:normal;font-stretch:normal;line-height:125%;letter-spacing:19.16000557px;word-spacing:0px;fill:#000000;fill-opacity:1;stroke:#ffffff;stroke-width:5;stroke-miterlimit:4;stroke-opacity:1;stroke-dasharray:none;font-family:Umpush;-inkscape-font-specification:Umpush"
         id="path6345-6-4-6"
         inkscape:connector-curvature="0" />
      <text
         xml:space="preserve"
         style="font-size:61.58176804px;font-style:normal;font-variant:normal;font-weight:normal;font-stretch:normal;line-height:128.99999619%;letter-spacing:0px;word-spacing:0px;fill:#000000;fill-opacity:1;stroke:#ffffff;stroke-width:0.73809487;stroke-opacity:1;font-family:Umpush;-inkscape-font-specification:Umpush"
         x="218.05948"
         y="516.69788"
         id="text4137-6-8-5-0-7-5"
         sodipodi:linespacing="129%"
         inkscape:export-filename="/home/gdurtan/Documents/!projekty_arch/uigen_mess/uigen_logo_horizontal_inverse.png"
         inkscape:export-xdpi="200"
         inkscape:export-ydpi="200"
         transform="scale(0.99575094,1.0042672)"><tspan
           sodipodi:role="line"
           x="218.05948"
           y="516.69788"
           style="font-size:17.76579857px;font-style:normal;font-variant:normal;font-weight:normal;font-stretch:normal;letter-spacing:2.08771229px;fill:#000000;fill-opacity:1;stroke:#ffffff;stroke-width:0.73809487;stroke-opacity:1;font-family:Sawasdee;-inkscape-font-specification:Sawasdee"
           id="tspan5290-3-6-7"><tspan
             id="tspan5626-4-3-7"
             style="font-size:17.76579857px;font-style:normal;font-variant:normal;font-weight:normal;font-stretch:normal;line-height:125%;letter-spacing:2.08771229px;fill:#000000;fill-opacity:1;stroke:#ffffff;stroke-width:0.73809487;stroke-opacity:1;font-family:Sawasdee;-inkscape-font-specification:Sawasdee">BUSINESS </tspan><tspan
             style="letter-spacing:2.08771229px;fill:#000000;fill-opacity:1;stroke:#ffffff;stroke-width:0.73809487;stroke-opacity:1"
             id="tspan6355-7-1-8">PROCESS MODELER </tspan></tspan><tspan
           sodipodi:role="line"
           x="218.05948"
           y="539.61578"
           style="font-size:8.88289928px;font-style:normal;font-variant:normal;font-stretch:normal;letter-spacing:2.08771229px;fill:#000000;fill-opacity:1;stroke:#ffffff;stroke-width:0.73809487;stroke-opacity:1;font-family:URW Gothic L;-inkscape-font-specification:URW Gothic L Book"
           id="tspan5068-8-5-0-14-9-9" /></text>
      <path
         inkscape:export-ydpi="200"
         inkscape:export-xdpi="200"
         inkscape:export-filename="/home/gdurtan/Documents/!projekty_arch/uigen_mess/uigen_logo_horizontal_inverse.png"
         sodipodi:nodetypes="cc"
         inkscape:connector-curvature="0"
         id="path4049-0-3-0-0-4-0-0-2-9-3-0-8"
         d="M 294.15748,446.68412 294.12444,438.69932"
         style="font-size:69.32619476px;font-style:normal;font-variant:normal;font-weight:normal;font-stretch:normal;line-height:125%;letter-spacing:0px;word-spacing:0px;fill:#000000;fill-opacity:1;stroke:#ffffff;stroke-width:4.19321966;stroke-linecap:square;stroke-linejoin:miter;stroke-miterlimit:4;stroke-opacity:1;stroke-dasharray:none;font-family:Umpush;-inkscape-font-specification:Umpush" />
      <rect
         inkscape:export-ydpi="200"
         inkscape:export-xdpi="200"
         inkscape:export-filename="/home/gdurtan/Documents/!projekty_arch/uigen_mess/uigen_logo_horizontal_inverse.png"
         style="font-size:69.32619476px;font-style:normal;font-variant:normal;font-weight:normal;font-stretch:normal;line-height:125%;letter-spacing:0px;word-spacing:0px;color:#000000;fill:#ffffff;fill-opacity:1;fill-rule:nonzero;stroke:#ffffff;stroke-width:0;stroke-linecap:butt;stroke-linejoin:round;stroke-miterlimit:4;stroke-opacity:1;stroke-dasharray:none;stroke-dashoffset:0;marker:none;visibility:visible;display:inline;overflow:visible;enable-background:accumulate;font-family:Umpush;-inkscape-font-specification:Umpush"
         id="rect5651-0"
         width="6.9157443"
         height="5.075861"
         x="362.72794"
         y="438.57578" />
    </g>
    <g
       id="g5149"
       transform="translate(3.7678359,122.47378)">
      <path
         inkscape:export-ydpi="200"
         inkscape:export-xdpi="200"
         inkscape:export-filename="/home/gdurtan/Documents/!projekty_arch/uigen_mess/uigen_logo_horizontal_inverse.png"
         d="M 223.95887,130.45115 227.58066,130.45115 227.58066,167.75555 C 227.58065,171.37735 228.3989,174.71745 230.03542,177.77575 231.67192,180.83415 233.84499,183.23535 236.55464,184.97915 239.29107,186.69615 242.24216,187.55465 245.40789,187.55465 248.57357,187.55465 251.49782,186.69615 254.18066,184.97915 256.89025,183.23535 259.03649,180.84765 260.61938,177.81605 262.22902,174.75765 263.03386,171.40415 263.03391,167.75555 L 263.03391,130.45115 266.65569,130.45115 266.65569,167.75555 C 266.65564,171.96755 265.70325,175.87105 263.79851,179.46595 261.9205,183.03405 259.3316,185.87785 256.03179,187.99725 252.75873,190.08985 249.1772,191.13615 245.28716,191.13615 241.39707,191.13615 237.81553,190.08985 234.54253,187.99725 231.2695,185.87785 228.6806,183.03405 226.77582,179.46595 224.89785,175.87105 223.95887,171.96755 223.95887,167.75555 L 223.95887,130.45115"
         style="font-size:69.32619476px;font-style:normal;font-variant:normal;font-weight:normal;font-stretch:normal;line-height:125%;letter-spacing:11.05000019px;word-spacing:0px;fill:#000000;fill-opacity:1;stroke:#000000;stroke-width:5;stroke-miterlimit:4;stroke-opacity:1;stroke-dasharray:none;font-family:Umpush;-inkscape-font-specification:Umpush"
         id="path6337-1-2-8-6"
         inkscape:connector-curvature="0" />
      <path
         inkscape:export-ydpi="200"
         inkscape:export-xdpi="200"
         inkscape:export-filename="/home/gdurtan/Documents/!projekty_arch/uigen_mess/uigen_logo_horizontal_inverse.png"
         d="M 294.6476,190.53255 291.02581,190.53255 291.02581,158.58615 294.6476,158.58615 294.6476,190.53255"
         style="font-size:69.32619476px;font-style:normal;font-variant:normal;font-weight:normal;font-stretch:normal;line-height:125%;letter-spacing:16.47999954px;word-spacing:0px;fill:#000000;fill-opacity:1;stroke:#000000;stroke-width:2;stroke-miterlimit:4;stroke-opacity:1;stroke-dasharray:none;font-family:Umpush;-inkscape-font-specification:Umpush"
         id="path6339-1-7-6-7"
         inkscape:connector-curvature="0"
         sodipodi:nodetypes="ccccc" />
      <path
         inkscape:export-ydpi="200"
         inkscape:export-xdpi="200"
         inkscape:export-filename="/home/gdurtan/Documents/!projekty_arch/uigen_mess/uigen_logo_horizontal_inverse.png"
         d="M 369.72819,140.24205 366.83076,142.37485 C 364.3357,139.02145 363.19683,138.37885 359.41412,136.44725 355.65816,134.48885 351.59371,133.50955 347.22078,133.50955 342.33805,133.50955 337.83094,134.71685 333.69945,137.13135 329.59474,139.54585 326.34856,142.83235 323.96088,146.99065 321.57317,151.12215 320.37932,155.64265 320.37933,160.55215 320.37932,164.20085 321.07685,167.68845 322.47192,171.01515 323.89379,174.34185 325.79858,177.21245 328.18629,179.62695 330.57397,182.04145 333.43115,183.97305 336.75785,185.42175 340.0845,186.84365 343.57214,187.55465 347.22078,187.55465 351.88882,187.55465 356.23496,186.44125 360.25921,184.21455 364.28336,181.96095 367.51614,178.90255 369.95754,175.03935 372.39883,171.17615 373.76706,166.93725 374.06223,162.32285 L 347.22078,162.32285 347.22078,158.74135 377.72426,158.74135 377.72426,160.55215 C 377.72419,164.71055 376.91935,168.68115 375.30974,172.46385 373.69999,176.21975 371.52692,179.46595 368.79052,182.20245 366.08084,184.93885 362.83465,187.11195 359.05195,188.72165 355.29598,190.33135 351.35226,191.13615 347.22078,191.13615 343.08923,191.13615 339.14552,190.33135 335.38962,188.72165 331.63367,187.11195 328.4009,184.93885 325.69128,182.20245 322.98164,179.46595 320.82199,176.21975 319.21231,172.46385 317.60262,168.68115 316.79778,164.71055 316.79779,160.55215 316.79778,156.39385 317.60262,152.42335 319.21231,148.64055 320.82199,144.85785 322.98164,141.59825 325.69128,138.86175 328.4009,136.12535 331.63367,133.95225 335.38962,132.34255 339.14552,130.73285 343.08923,129.92805 347.22078,129.92795 352.13027,129.92805 356.74469,131.02805 361.06405,133.22785 365.38331,135.42775 366.93802,136.43255 369.72819,140.24205"
         style="font-size:69.32619476px;font-style:normal;font-variant:normal;font-weight:normal;font-stretch:normal;line-height:125%;letter-spacing:12.56000042px;word-spacing:0px;fill:#000000;fill-opacity:1;stroke:#000000;stroke-width:5;stroke-miterlimit:4;stroke-opacity:1;stroke-dasharray:none;font-family:Umpush;-inkscape-font-specification:Umpush"
         id="path6341-83-23-7-9"
         inkscape:connector-curvature="0"
         sodipodi:nodetypes="cccsccscscsccccccccccssccsscsccc" />
      <path
         inkscape:export-ydpi="200"
         inkscape:export-xdpi="200"
         inkscape:export-filename="/home/gdurtan/Documents/!projekty_arch/uigen_mess/uigen_logo_horizontal_inverse.png"
         sodipodi:nodetypes="ccccccccccccccccccc"
         inkscape:connector-curvature="0"
         id="path6343-5-9-1-0"
         d="M 395.96144,130.44735 395.96144,134.49645 399.58644,134.46725 430.89894,134.43805 430.89894,130.44735 z M 395.96144,153.81885 395.96144,157.43565 399.58644,157.44155 428.39894,157.44735 428.39894,153.82235 399.58644,153.82065 z M 395.96144,186.03565 395.96144,190.54115 430.71144,190.54115 430.71144,186.05425 399.58644,186.04495 z"
         style="font-size:69.32619476px;font-style:normal;font-variant:normal;font-weight:normal;font-stretch:normal;line-height:125%;letter-spacing:19.16000557px;word-spacing:0px;fill:#000000;fill-opacity:1;stroke:#000000;stroke-width:3;stroke-miterlimit:4;stroke-opacity:1;stroke-dasharray:none;font-family:Umpush;-inkscape-font-specification:Umpush" />
      <path
         inkscape:export-ydpi="200"
         inkscape:export-xdpi="200"
         inkscape:export-filename="/home/gdurtan/Documents/!projekty_arch/uigen_mess/uigen_logo_horizontal_inverse.png"
         d="M 453.21975,190.53255 453.21975,129.72675 503.76374,182.40365 503.76374,130.45115 507.34534,130.45115 507.34534,191.21665 456.84154,138.62025 456.84154,190.53255 453.21975,190.53255"
         style="font-size:69.32619476px;font-style:normal;font-variant:normal;font-weight:normal;font-stretch:normal;line-height:125%;letter-spacing:19.16000557px;word-spacing:0px;fill:#000000;fill-opacity:1;stroke:#000000;stroke-width:5;stroke-miterlimit:4;stroke-opacity:1;stroke-dasharray:none;font-family:Umpush;-inkscape-font-specification:Umpush"
         id="path6345-6-4-6-6"
         inkscape:connector-curvature="0" />
      <text
         xml:space="preserve"
         style="font-size:61.58176804px;font-style:normal;font-variant:normal;font-weight:normal;font-stretch:normal;line-height:128.99999619%;letter-spacing:0px;word-spacing:0px;fill:#000000;fill-opacity:1;stroke:#000000;stroke-width:0.73809487;stroke-opacity:1;font-family:Umpush;-inkscape-font-specification:Umpush"
         x="221.68022"
         y="220.15878"
         id="text4137-6-8-5-0-7-5-9"
         sodipodi:linespacing="129%"
         inkscape:export-filename="/home/gdurtan/Documents/!projekty_arch/uigen_mess/uigen_logo_horizontal_inverse.png"
         inkscape:export-xdpi="200"
         inkscape:export-ydpi="200"
         transform="scale(0.99575094,1.0042672)"><tspan
           sodipodi:role="line"
           x="221.68022"
           y="220.15878"
           style="font-size:17.76579857px;font-style:normal;font-variant:normal;font-weight:normal;font-stretch:normal;letter-spacing:2.08771229px;fill:#000000;fill-opacity:1;stroke:#000000;stroke-width:0.73809487;stroke-opacity:1;font-family:Sawasdee;-inkscape-font-specification:Sawasdee"
           id="tspan5290-3-6-7-4"><tspan
             id="tspan5626-4-3-7-6"
             style="font-size:17.76579857px;font-style:normal;font-variant:normal;font-weight:normal;font-stretch:normal;line-height:125%;letter-spacing:2.08771229px;fill:#000000;fill-opacity:1;stroke:#000000;stroke-width:0.73809487;stroke-opacity:1;font-family:Sawasdee;-inkscape-font-specification:Sawasdee">BUSINESS </tspan><tspan
             style="letter-spacing:2.08771229px;fill:#000000;fill-opacity:1;stroke:#000000;stroke-width:0.73809487;stroke-opacity:1"
             id="tspan6355-7-1-8-7">PROCESS MODELER </tspan></tspan><tspan
           sodipodi:role="line"
           x="221.68022"
           y="243.07666"
           style="font-size:8.88289928px;font-style:normal;font-variant:normal;font-stretch:normal;letter-spacing:2.08771229px;fill:#000000;fill-opacity:1;stroke:#000000;stroke-width:0.73809487;stroke-opacity:1;font-family:URW Gothic L;-inkscape-font-specification:URW Gothic L Book"
           id="tspan5068-8-5-0-14-9-9-4" /></text>
      <path
         inkscape:export-ydpi="200"
         inkscape:export-xdpi="200"
         inkscape:export-filename="/home/gdurtan/Documents/!projekty_arch/uigen_mess/uigen_logo_horizontal_inverse.png"
         sodipodi:nodetypes="cc"
         inkscape:connector-curvature="0"
         id="path4049-0-3-0-0-4-0-0-2-9-3-0-8-4"
         d="M 297.76284,148.87945 297.7298,140.89465"
         style="font-size:69.32619476px;font-style:normal;font-variant:normal;font-weight:normal;font-stretch:normal;line-height:125%;letter-spacing:0px;word-spacing:0px;fill:#000000;fill-opacity:1;stroke:#000000;stroke-width:4.19321966;stroke-linecap:square;stroke-linejoin:miter;stroke-miterlimit:4;stroke-opacity:1;stroke-dasharray:none;font-family:Umpush;-inkscape-font-specification:Umpush" />
      <rect
         inkscape:export-ydpi="200"
         inkscape:export-xdpi="200"
         inkscape:export-filename="/home/gdurtan/Documents/!projekty_arch/uigen_mess/uigen_logo_horizontal_inverse.png"
         style="font-size:69.32619476px;font-style:normal;font-variant:normal;font-weight:normal;font-stretch:normal;line-height:125%;letter-spacing:0px;word-spacing:0px;color:#000000;fill:#000000;fill-opacity:1;fill-rule:nonzero;stroke:#000000;stroke-width:0;stroke-linecap:butt;stroke-linejoin:round;stroke-miterlimit:4;stroke-opacity:1;stroke-dasharray:none;stroke-dashoffset:0;marker:none;visibility:visible;display:inline;overflow:visible;enable-background:accumulate;font-family:Umpush;-inkscape-font-specification:Umpush"
         id="rect5651-0-5"
         width="6.9157443"
         height="5.075861"
         x="366.33328"
         y="140.77113" />
    </g>
    <text
       xml:space="preserve"
       style="font-size:40px;font-style:normal;font-variant:normal;font-weight:normal;font-stretch:normal;text-align:end;line-height:125%;letter-spacing:0px;word-spacing:0px;text-anchor:end;fill:#000000;fill-opacity:1;stroke:none;font-family:Ubuntu;-inkscape-font-specification:Ubuntu"
       x="717.98065"
       y="983.33405"
       id="text5177"
       sodipodi:linespacing="125%"><tspan
         sodipodi:role="line"
         x="720.74628"
         y="983.33405"
         style="font-size:12px;font-weight:normal;text-align:end;text-anchor:end;-inkscape-font-specification:Ubuntu"
         id="tspan5189">UiGEN Logotype created by Grzegorz Durtan [ dadmor@gmail.com ] on 2014 year.  </tspan><tspan
         sodipodi:role="line"
         x="720.74628"
         y="998.33405"
         style="font-size:12px;font-weight:normal;text-align:end;text-anchor:end;-inkscape-font-specification:Ubuntu"
         id="tspan5195">To create logotype I was used sawasdee font design by Miriam Ruiz </tspan><tspan
         sodipodi:role="line"
         x="717.98065"
         y="1013.334"
         id="tspan5183"
         style="font-size:12px;font-weight:normal;text-align:end;text-anchor:end;-inkscape-font-specification:Ubuntu">This is logotype of UiGEN project published on: https://github.com/dadmor/UiGEN-Core</tspan></text>
  </g>
</svg>
